<svg xmlns="http://www.w3.org/2000/svg" xml:space="preserve" id="Layer_1" x="0" y="0" style="enable-background:new 0 0 216 216" version="1.1" viewBox="0 0 216 216"><style>.st0{fill:#fff}</style><path d="M73.4 140.8v-4.9l-1.8-1.8-1.8 1.8v4.9l1 2.6v4.2h1.5v-4.2l1.1-2.6zM80.6 143.4V141h-4.8l-2.1 2.6v3.9h1.6V145l1.7-1.6 2.2 1.4 1.4-1.4zM62.5 143.4V141h4.9l2 2.6v3.9h-1.5V145l-1.8-1.6-2.2 1.4-1.4-1.4zM69.4 150.8V149h-3.1v1.4l2.1 1.7 1-1.3zM73.7 150.8V149h3.1v1.4l-2.1 1.7-1-1.3zM73.4 153l-1.1-1.9V149h-1.5v2.1l-1.2 1.9 1.8 2.3 2-2.3zM70.9 112.3h-.1c-2.7-.4-5.7-.9-8.7-1.5-3.2-.6-6.3-1.3-9.2-2-.2-.1-.4-.1-.6-.2-.3-.1-.5-.4-.5-.7V89.3c0-.2.1-.4.3-.5.2-.1.4-.2.6-.1 1.3.3 5.8 1.4 8.9 2 3.3.6 6 1.2 8.8 1.7l.7.1c.3.1.6.3.6.7v18.5c0 .2-.1.4-.2.5-.3 0-.5.1-.6.1zm-17.8-4.9c.1 0 .1 0 0 0 3 .8 6.1 1.4 9.2 2.1 2.7.5 5.3 1 7.8 1.3V93.7H70c-2.8-.5-5.5-1-8.8-1.7-2.6-.5-6.2-1.4-8.1-1.8v17.2zM144.5 112.3c-.2 0-.3-.1-.4-.2-.2-.1-.2-.3-.2-.5V93.1c0-.3.2-.6.6-.7l.7-.1c2.8-.5 5.6-1 8.8-1.7 3.1-.6 7.6-1.7 8.9-2 .2-.1.4 0 .6.1.2.1.3.3.3.5v18.6c0 .3-.2.6-.5.7l-.6.2c-2.9.7-6 1.4-9.2 2-3 .6-5.9 1.1-8.7 1.5-.2.1-.3.1-.3.1zm.7-18.6v17.1c2.5-.4 5.2-.8 7.8-1.3 3.2-.6 6.2-1.3 9.1-2h.1V90.2c-1.9.4-5.5 1.3-8.1 1.8-3.2.6-6 1.2-8.8 1.7h-.1zM106.9 77.2c-34.9 0-54.3-6.7-54.5-6.8-.2-.1-.3-.3-.3-.5V44.5c0-.2.1-.3.2-.4.1-.1.3-.1.4-.1.2.1 23.8 5.7 55 5.9h2.1c32.1 0 52.8-5.9 53-5.9.1 0 .3 0 .4.1.1.1.2.2.2.4V70c0 .2-.2.4-.4.5-.3.1-26.7 6.7-55.3 6.7h-.8zM53 69.6c2.7.9 21.6 6.6 53.8 6.6h.8c26.7-.1 51.4-5.8 54.7-6.6V45.1c-3.7 1-23.5 5.8-52.6 5.8h-2.1C79.1 50.7 56.9 46 53 45.1v24.5zM107.7 119.7c-.2 0-.4-.1-.5-.2l-3.1-3.2H84.2c-.4 0-.6-.3-.6-.7V82c0-.2.1-.4.3-.5.1-.1.3-.2.5-.2h20.5c.2 0 .4.1.5.2l2.4 2.4 2.4-2.4c.1-.1.3-.2.5-.2h20.6c.2 0 .3 0 .5.1s.3.3.3.5v33.6c0 .4-.3.7-.6.7h-20l-3.1 3.2c-.3.2-.5.3-.7.3zm-22.8-4.8h19.5c.2 0 .4.1.5.2l2.8 2.9 2.8-2.9c.1-.1.3-.2.5-.2h19.5V82.7h-19.6l-2.7 2.6c-.3.3-.7.3-1 0l-2.7-2.6H84.9v32.2z" class="st0"/><path d="M107.7 129.3c-.2 0-.3-.1-.5-.2l-4.9-4.4H76.2c-.4 0-.7-.3-.7-.7V89.5c0-.2.1-.4.3-.5l4.3-3.4c.2-.2.5-.2.7-.1.2.1.4.4.4.6V119H104c.2 0 .3.1.5.2l3.4 3 3.4-3c.1-.1.3-.2.5-.2h22.8V86.1c0-.3.1-.5.4-.6.2-.1.5-.1.7.1L140 89c.2.1.3.3.3.5V124c0 .4-.3.7-.7.7h-26.2l-4.9 4.4c-.4.2-.6.2-.8.2zm-30.9-6h25.8c.2 0 .3.1.5.2l4.6 4.2 4.6-4.2c.1-.1.3-.2.5-.2h25.8V89.8l-2.9-2.3v32.2c0 .3-.3.6-.6.7h-23.3l-3.7 3.2c-.3.2-.6.2-.9 0l-3.7-3.2H80.3c-.3 0-.6-.3-.6-.7V87.5l-2.9 2.3v33.5z" class="st0"/><path d="M107.8 179.8c-.1 0-.1 0 0 0-.1 0-.1 0 0 0-1.7 0-35.8-12.1-44.4-16.3-6.6-3.3-15.7-7.8-17-16.6-.8-5.8-.7-11.2-.6-17 0-2.1.1-4.2.1-6.3V37c0-.3.1-.6.4-.8.2-.2.5-.3.8-.2.3.1 28.5 6.9 59.6 6.9h1.8c31.1 0 59.3-6.8 59.6-6.9.3-.1.6 0 .8.2.2.2.4.5.4.8V95.1c0 9.1.1 18.6 0 28.3 0 2.1 0 4.3.1 6.3.1 5.7.2 11.2-.6 17-1.3 8.9-10.4 13.4-17 16.6-8.3 4.4-42.4 16.5-44 16.5zM48 38.4V95.3c0 9.2-.1 18.7 0 28.2 0 2.1 0 4.3-.1 6.3-.1 5.7-.2 11 .6 16.6 1.1 7.8 9.7 12.1 15.9 15.2 8.9 4.4 41 15.7 43.5 16.1 2.5-.5 34.6-11.7 43.5-16.1 6.2-3.1 14.8-7.3 15.9-15.2.8-5.6.7-11 .6-16.6 0-2.1-.1-4.2-.1-6.3V38.3c-5.8 1.3-31.2 6.6-58.9 6.6h-1.8c-27.9.1-53.4-5.2-59.1-6.5z" class="st0"/><path d="M107.7 173.7h-.2c-1.3-.5-3.4-1.3-6-2.2-10.2-3.7-27.3-10-34.1-13.2l-1-.5c-5.9-2.7-13.3-6.2-14.3-13.5-.6-4.3-.5-9.4-.3-13.9 0-1 .1-2 .1-2.9 0-.1.1-.3.2-.4.1-.1.3-.1.4-.1.2.1 24.6 6 54.2 6h2.2c29.6 0 54-5.9 54.2-6 .1 0 .3 0 .4.1.1.1.2.2.2.4 0 1 0 2 .1 3 .1 4.5.3 9.5-.3 13.8-1 7.4-8.4 10.8-14.3 13.5l-1 .5c-6.8 3.2-23.8 9.4-34 13.1-2.7 1-4.8 1.8-6.2 2.3h-.3zm-54.9-45.6c0 .8 0 1.5-.1 2.3-.1 4.4-.3 9.5.3 13.7 1 6.9 7.8 10 13.8 12.8l1 .5c6.8 3.2 23.8 9.4 34 13.2 2.5.9 4.6 1.7 5.9 2.2 1.3-.5 3.4-1.3 6-2.2 10.1-3.7 27.1-10 33.9-13.1l1-.5c6-2.8 12.8-5.9 13.8-12.8.6-4.2.5-9.2.3-13.6 0-.8 0-1.6-.1-2.4-3.9.9-26.7 5.9-53.8 5.9h-2.2c-27.2-.2-49.9-5.1-53.8-6zM138.3 67.8c-.1 0-.2 0-.3-.1-.2-.1-.3-.4-.2-.6l1.8-5.8-4.7-3.5c-.2-.1-.2-.4-.2-.6.1-.2.3-.4.5-.4l5.7-.3 1.5-5.2c.1-.2.3-.4.5-.4s.4.1.5.3l2.1 5.2h5.9c.2 0 .4.1.5.3.1.2 0 .4-.2.6l-4.6 3.8 2.1 5.5c.1.2 0 .4-.2.6-.2.1-.4.2-.6 0l-5-3.3-4.7 3.5c-.2.4-.3.4-.4.4zM102.7 71.8c-.1 0-.2 0-.3-.1-.2-.1-.3-.4-.2-.6l1.9-5.7-4.6-3.6c-.2-.1-.2-.4-.2-.6.1-.2.3-.3.5-.4l5.7-.2 1.6-5.2c.1-.2.3-.3.5-.4.2 0 .4.1.5.3l1.9 5.2 5.9.2c.2 0 .4.1.5.3.1.2 0 .4-.2.6l-4.7 3.7 2 5.5c.1.2 0 .4-.2.6-.2.1-.4.1-.6 0l-5-3.4-4.8 3.4c0 .3-.1.4-.2.4zM67 67.6c-.1 0-.2 0-.3-.1-.2-.1-.2-.4-.2-.6l2.1-5.7-4.5-3.7c-.2-.1-.2-.4-.2-.6.1-.2.3-.3.5-.3h5.7l1.7-5.2c.1-.2.3-.3.5-.4.2 0 .4.1.5.3l1.8 5.3 5.9.3c.2 0 .4.1.5.4.1.2 0 .4-.2.6L76 61.5l1.8 5.6c.1.2 0 .4-.2.6-.2.1-.4.1-.6 0l-4.9-3.5-4.9 3.3s-.1.1-.2.1z" class="st0"/><path d="M110.3 148.1v-6.8l-2.5-2.5-2.5 2.5v6.8l1.5 3.6v5.8h2.1v-5.8l1.4-3.6zM120.2 151.6v-3.2h-6.8l-2.8 3.6v5.4h2.1v-3.5l2.5-2.3 3 2 2-2zM95.5 151.6v-3.2h6.7l2.9 3.6v5.4h-2.2v-3.5l-2.5-2.3-3 2-1.9-2zM105 162v-2.5h-4.2v1.9l2.8 2.3 1.4-1.7zM110.5 162v-2.5h4.3v1.9l-2.9 2.3-1.4-1.7zM110.3 165l-1.5-2.7v-2.8h-2v2.8l-1.7 2.7 2.6 3.2 2.7-3.2zM145.6 140.8V136l-1.8-1.8-1.8 1.8v4.8l1.1 2.6v4.2h1.5v-4.2l1-2.6zM152.9 143.4v-2.3H148l-2.1 2.6v3.9h1.6v-2.5l1.8-1.7 2.2 1.4 1.4-1.4zM134.8 143.4v-2.3h4.8l2.1 2.6v3.9h-1.6v-2.5l-1.8-1.7-2.1 1.4-1.4-1.4zM141.6 150.9v-1.8h-3v1.4l2 1.7 1-1.3zM145.9 150.9v-1.8h3.1v1.4l-2.1 1.7-1-1.3zM145.6 153.1l-1.1-2v-2h-1.4v2l-1.2 2 1.8 2.3 1.9-2.3z" class="st0"/></svg>